
<svg version="1.1" id="Camada_1" xmlns="http://www.w3.org/2000/svg" xmlns:xlink="http://www.w3.org/1999/xlink" x="0px" y="0px"
	 width="88" height="78" viewBox="0 0 88 78" style="enable-background:new 0 0 88 78;" xml:space="preserve">
<style type="text/css">
	.st0{opacity:0.1;}
	.st1{fill:#44519E;}
	.st2{fill:#3360FF;}
	.st3{fill:#FFFFFF;}
</style>
<g xmlns="http://www.w3.org/2000/svg" filter="url(#filter0_d)">
<ellipse cx="44" cy="54" rx="28.52" ry="3.72" fill="#EBEBEB"/>
</g>
<g>
	<path class="st1" d="M12.9,3.7c0-2.1,1.7-3.7,3.7-3.7H44v31.1H12.9V3.7z"/>
	<path class="st2" d="M14.2,31.1H44v29.8H14.2V31.1z"/>
	<path class="st2" d="M44,1.3h29.8v29.8H44V1.3z"/>
	<path class="st1" d="M44,31.1h31.1v27.3c0,2.1-1.7,3.7-3.7,3.7H44V31.1z"/>
	<path class="st3" d="M35.7,27.3c-0.3,0-0.5-0.1-0.7-0.2c-0.2-0.1-0.3-0.3-0.3-0.3l-5.8-8.4v8.3c0,0.2-0.1,0.3-0.2,0.5
		c-0.1,0.1-0.3,0.2-0.5,0.2h-3.3c-0.2,0-0.3-0.1-0.5-0.2c-0.1-0.1-0.2-0.3-0.2-0.5V10.9c0-0.2,0.1-0.3,0.2-0.5
		c0.1-0.1,0.3-0.2,0.5-0.2h2.6c0.3,0,0.5,0.1,0.7,0.2c0.2,0.1,0.3,0.3,0.4,0.3l5.8,8.4v-8.3c0-0.2,0.1-0.3,0.2-0.5
		c0.1-0.1,0.3-0.2,0.5-0.2h3.3c0.2,0,0.3,0.1,0.5,0.2c0.1,0.1,0.2,0.3,0.2,0.5v15.8c0,0.2-0.1,0.3-0.2,0.5c-0.1,0.1-0.3,0.2-0.5,0.2
		H35.7z"/>
	<path class="st3" d="M32.1,34.8c1.1,0,2,0.1,2.9,0.4c0.8,0.2,1.6,0.6,2.2,1.1c0.6,0.5,1.1,1.1,1.4,1.8c0.3,0.7,0.5,1.6,0.5,2.5
		c0,1-0.2,1.8-0.5,2.5c-0.3,0.7-0.8,1.3-1.4,1.8c-0.6,0.5-1.3,0.8-2.2,1.1c-0.8,0.3-1.8,0.4-2.9,0.4h-3.2v5c0,0.2-0.1,0.3-0.2,0.5
		c-0.1,0.1-0.3,0.2-0.5,0.2h-3.3c-0.2,0-0.3-0.1-0.5-0.2c-0.1-0.1-0.2-0.3-0.2-0.5V35.5c0-0.2,0.1-0.3,0.2-0.5
		c0.1-0.1,0.3-0.2,0.5-0.2H32.1z M28.9,42.5H32c0.7,0,1.3-0.1,1.7-0.4c0.5-0.3,0.7-0.8,0.7-1.5c0-0.7-0.2-1.2-0.7-1.5
		c-0.5-0.3-1-0.5-1.7-0.5h-3.1V42.5z"/>
	<path class="st3" d="M55.3,27.3c-0.6,0-1.1-0.3-1.3-1l-5-15.3c0-0.1-0.1-0.2-0.1-0.2c0,0,0-0.1,0-0.1c0-0.1,0-0.3,0.1-0.4
		c0.1-0.1,0.3-0.2,0.4-0.2h3.1c0.3,0,0.5,0.1,0.7,0.2c0.1,0.1,0.2,0.3,0.3,0.4l3.4,10.8l3.4-10.8c0-0.1,0.1-0.3,0.3-0.4
		c0.1-0.1,0.4-0.2,0.7-0.2h3.1c0.1,0,0.3,0.1,0.4,0.2c0.1,0.1,0.2,0.2,0.2,0.4c0,0,0,0.1,0,0.1c0,0,0,0.1,0,0.2l-5,15.3
		c-0.2,0.7-0.7,1-1.3,1H55.3z"/>
	<path class="st3" d="M53.7,41.7c0,0.2,0,0.5,0,0.9c0,0.4,0,0.8,0,1.2c0,0.4,0,0.8,0,1.2c0,0.4,0,0.7,0,0.9c0,0.4,0.1,0.8,0.2,1.1
		c0.1,0.3,0.3,0.7,0.5,0.9c0.3,0.3,0.5,0.5,0.9,0.6c0.4,0.2,0.8,0.2,1.4,0.2s1-0.1,1.4-0.2c0.4-0.1,0.7-0.3,0.9-0.5
		c0.2-0.2,0.4-0.4,0.5-0.6c0.1-0.2,0.2-0.5,0.3-0.6c0.1-0.3,0.2-0.5,0.3-0.5c0.1-0.1,0.3-0.2,0.6-0.2h3.2c0.1,0,0.3,0.1,0.4,0.2
		c0.1,0.1,0.2,0.2,0.2,0.4c0,0.8-0.2,1.6-0.6,2.4c-0.4,0.8-0.9,1.4-1.6,1.9c-0.7,0.5-1.5,1-2.4,1.3c-0.9,0.3-1.9,0.5-3,0.5
		c-1.2,0-2.2-0.2-3.2-0.5c-0.9-0.4-1.7-0.8-2.4-1.5c-0.7-0.6-1.2-1.3-1.5-2.1c-0.3-0.8-0.5-1.7-0.6-2.6c0-0.7,0-1.4,0-2.2
		c0-0.8,0-1.5,0-2.2c0-0.9,0.2-1.8,0.6-2.6c0.4-0.8,0.9-1.6,1.5-2.2c0.7-0.6,1.4-1.1,2.4-1.4c0.9-0.4,2-0.5,3.2-0.5
		c1.1,0,2.1,0.2,3,0.5c0.9,0.3,1.7,0.8,2.4,1.3c0.7,0.5,1.2,1.2,1.6,1.9c0.4,0.8,0.6,1.5,0.6,2.4c0,0.2-0.1,0.3-0.2,0.4
		c-0.1,0.1-0.2,0.2-0.4,0.2h-3.2c-0.3,0-0.5,0-0.6-0.2c-0.1-0.1-0.2-0.3-0.3-0.6c-0.1-0.2-0.2-0.4-0.3-0.6c-0.1-0.2-0.3-0.4-0.5-0.6
		c-0.2-0.2-0.5-0.4-0.9-0.5c-0.4-0.1-0.8-0.2-1.4-0.2c-0.5,0-1,0.1-1.4,0.3c-0.4,0.2-0.7,0.4-0.9,0.6c-0.3,0.3-0.4,0.6-0.5,0.9
		C53.8,40.9,53.7,41.3,53.7,41.7z"/>
</g>
<defs xmlns="http://www.w3.org/2000/svg">
<filter id="filter0_d" x="0.47998" y="39.84" width="87.04" height="37.44" filterUnits="userSpaceOnUse" color-interpolation-filters="sRGB">
<feFlood flood-opacity="0" result="BackgroundImageFix"/>
<feColorMatrix in="SourceAlpha" type="matrix" values="0 0 0 0 0 0 0 0 0 0 0 0 0 0 0 0 0 0 127 0"/>
<feOffset dy="4"/>
<feGaussianBlur stdDeviation="7.5"/>
<feColorMatrix type="matrix" values="0 0 0 0 0 0 0 0 0 0 0 0 0 0 0 0 0 0 0.25 0"/>
<feBlend mode="normal" in2="BackgroundImageFix" result="effect1_dropShadow"/>
<feBlend mode="normal" in="SourceGraphic" in2="effect1_dropShadow" result="shape"/>
</filter>
<filter id="filter1_d" x="10" y="25" width="37" height="15" filterUnits="userSpaceOnUse" color-interpolation-filters="sRGB">
<feFlood flood-opacity="0" result="BackgroundImageFix"/>
<feColorMatrix in="SourceAlpha" type="matrix" values="0 0 0 0 0 0 0 0 0 0 0 0 0 0 0 0 0 0 127 0"/>
<feOffset dy="-7"/>
<feGaussianBlur stdDeviation="2"/>
<feColorMatrix type="matrix" values="0 0 0 0 0 0 0 0 0 0 0 0 0 0 0 0 0 0 0.35 0"/>
<feBlend mode="normal" in2="BackgroundImageFix" result="effect1_dropShadow"/>
<feBlend mode="normal" in="SourceGraphic" in2="effect1_dropShadow" result="shape"/>
</filter>
<filter id="filter2_d" x="40" y="24" width="37" height="12" filterUnits="userSpaceOnUse" color-interpolation-filters="sRGB">
<feFlood flood-opacity="0" result="BackgroundImageFix"/>
<feColorMatrix in="SourceAlpha" type="matrix" values="0 0 0 0 0 0 0 0 0 0 0 0 0 0 0 0 0 0 127 0"/>
<feOffset dy="4"/>
<feGaussianBlur stdDeviation="2"/>
<feColorMatrix type="matrix" values="0 0 0 0 0 0 0 0 0 0 0 0 0 0 0 0 0 0 0.35 0"/>
<feBlend mode="normal" in2="BackgroundImageFix" result="effect1_dropShadow"/>
<feBlend mode="normal" in="SourceGraphic" in2="effect1_dropShadow" result="shape"/>
</filter>
</defs>
</svg>
